<svg width="706" height="292" viewBox="0 0 706 292" fill="none" xmlns="http://www.w3.org/2000/svg">
<path d="M0 163.518C19.7488 161.564 34.6799 160.587 44.7932 160.587C54.9065 160.587 62.9095 161.325 68.8023 162.8C74.7349 164.276 79.6124 166.569 83.4347 169.679C90.8405 175.74 94.5434 185.689 94.5434 199.527C94.5434 205.747 93.3689 211.45 91.0197 216.634C88.6706 221.817 85.4654 226.264 81.4041 229.972C77.3429 233.681 72.5848 236.572 67.13 238.645C61.6752 240.719 55.8421 241.756 49.6308 241.756L38.9999 241.516V258.803H0V163.518ZM53.8115 185.41C50.3873 185.41 45.3705 187.783 38.761 192.528V215.078L45.7488 211.669C50.3674 209.396 53.5925 207.223 55.4241 205.149C58.8483 201.281 60.5604 197.433 60.5604 193.605C60.5604 189.777 59.2663 187.245 56.6783 186.008C55.8421 185.61 54.8866 185.41 53.8115 185.41Z" fill="url(#paint0_linear)"/>
<path d="M153.073 205.747C153.073 202.238 151.441 200.484 148.176 200.484C144.433 200.842 142.004 202.776 140.889 206.286C140.332 207.96 139.934 209.914 139.695 212.147C139.496 214.341 139.177 216.693 138.739 219.206L151.819 216.275L152.954 207.123L153.073 205.747ZM145.01 232.963C145.01 232.963 143.915 232.963 141.726 232.963C140.69 232.963 139.695 232.923 138.739 232.843C138.739 237.589 141.268 240.181 146.324 240.619C147.718 240.739 149.072 240.799 150.386 240.799C153.77 240.799 158.01 240.021 163.107 238.466C168.243 236.911 172.842 234.379 176.903 230.869L180.606 249.472C171.727 257.168 158.309 261.016 140.352 261.016C130.04 261.016 121.18 258.005 113.775 251.984C105.732 245.404 101.71 236.293 101.71 224.649C101.71 215.876 103.98 208 108.519 201.022C112.739 194.642 118.453 189.797 125.66 186.487C132.866 183.177 140.651 181.522 149.012 181.522C159.842 181.522 168.024 183.895 173.559 188.64C179.133 193.386 181.9 199.247 181.86 206.226C181.86 213.204 178.536 219.405 171.886 224.828C165.237 230.251 156.278 232.963 145.01 232.963Z" fill="url(#paint1_linear)"/>
<path d="M234.716 204.671C231.531 204.671 229.938 207.243 229.938 212.387V258.803H194.462V184.453H214.052L222.592 196.057C225.777 191.631 230.177 188.122 235.791 185.53C241.445 182.938 246.721 181.642 251.618 181.642C260.617 181.642 267.744 184.035 272.999 188.82C278.295 193.605 280.943 200.025 280.943 208.08V258.803H245.228V222.914C245.228 210.752 241.724 204.671 234.716 204.671Z" fill="url(#paint2_linear)"/>
<path d="M321.914 289.428V268.254C323.944 268.493 326.154 268.832 328.543 269.27C330.972 269.709 333.321 269.928 335.59 269.928C337.86 269.928 339.95 269.669 341.861 269.151C343.812 268.632 345.544 267.616 347.057 266.1C350.322 262.83 351.975 257.327 352.015 249.591C345.047 257.208 336.606 261.016 326.691 261.016C316.817 261.056 308.575 257.926 301.966 251.625C295.396 245.325 292.111 236.332 292.111 224.649C292.111 216.275 293.943 208.838 297.606 202.338C301.269 195.798 306.186 190.714 312.358 187.085C318.569 183.456 325.159 181.642 332.126 181.642C339.134 181.642 345.186 183.935 350.283 188.521C351.955 189.996 353.388 191.691 354.583 193.605L363.183 184.453H382.713V258.803C382.753 274.155 375.845 284.244 361.988 289.069C356.414 291.023 350.024 292 342.817 292C335.65 292 328.682 291.143 321.914 289.428ZM350.581 207.003C349.148 206.166 347.635 205.747 346.042 205.747C344.489 205.747 342.976 206.066 341.503 206.704C338.477 208.02 335.77 210.154 333.381 213.104C329.359 217.77 327.348 222.715 327.348 227.938C327.348 231.448 328.384 233.92 330.454 235.356C332.206 236.512 334.914 236.492 338.577 235.296C342.08 234.139 346.082 231.807 350.581 228.297V207.003Z" fill="url(#paint3_linear)"/>
<path d="M431.806 219.086C431.806 232.165 434.971 238.705 441.302 238.705C444.488 238.705 446.339 237.15 446.857 234.04C447.016 233.083 447.096 232.026 447.096 230.869V184.453H482.572V258.803H462.982L454.442 247.139C449.385 254.038 442.079 258.524 432.523 260.597C420.817 263.11 411.38 261.116 404.214 254.616C398.799 249.711 396.091 243.231 396.091 235.176V184.453H431.806V219.086Z" fill="url(#paint4_linear)"/>
<path d="M515.301 150C521.154 150 525.494 151.236 528.32 153.709C531.147 156.141 532.541 159.251 532.501 163.04C532.501 166.828 530.69 170.317 527.066 173.507C523.483 176.697 518.685 178.292 512.673 178.292C504.232 178.292 498.976 175.74 496.906 170.636C496.308 169.201 496.01 167.605 496.01 165.851C496.01 164.096 496.428 162.262 497.264 160.348C498.1 158.434 499.354 156.719 501.026 155.204C504.729 151.735 509.487 150 515.301 150ZM531.486 258.803H496.906V184.453H531.486V258.803Z" fill="url(#paint5_linear)"/>
<path d="M586.253 204.671C583.068 204.671 581.475 207.243 581.475 212.387V258.803H545.999V184.453H565.588L574.129 196.057C577.314 191.631 581.714 188.122 587.328 185.53C592.982 182.938 598.258 181.642 603.155 181.642C612.153 181.642 619.28 184.035 624.536 188.82C629.832 193.605 632.479 200.025 632.479 208.08V258.803H596.764V222.914C596.764 210.752 593.261 204.671 586.253 204.671Z" fill="url(#paint6_linear)"/>
<path d="M701.342 206.764C692.502 204.691 686.072 203.654 682.051 203.654C680.896 203.654 680 203.913 679.363 204.431C678.766 204.95 678.467 205.528 678.467 206.166C678.467 207.482 680.1 208.818 683.365 210.174C686.669 211.489 689.695 212.785 692.443 214.062C695.19 215.338 697.559 216.893 699.55 218.727C703.85 222.715 706 228.656 706 236.552C706 244.407 703.153 250.449 697.459 254.676C691.766 258.903 684.061 261.016 674.346 261.016C664.631 261.016 656.867 260.119 651.054 258.324C648.505 257.567 646.555 256.669 645.201 255.633V233.441C645.758 233.481 646.734 233.741 648.127 234.219C649.521 234.698 651.83 235.455 655.055 236.492C658.28 237.489 661.207 237.987 663.835 237.987C666.502 237.987 667.836 237.01 667.836 235.056C667.836 233.541 666.642 232.066 664.253 230.63C663.178 229.992 661.963 229.334 660.61 228.656C654.996 225.905 650.974 222.735 648.545 219.146C646.156 215.517 644.962 211.27 644.962 206.405C644.962 197.752 648.466 191.292 655.473 187.025C661.366 183.436 669.071 181.642 678.587 181.642C685.236 181.642 691.905 182.3 698.594 183.616C700.028 183.895 700.943 184.094 701.342 184.214V206.764Z" fill="url(#paint7_linear)"/>
<path d="M0 3.99346C27.0805 1.33115 47.5546 0 61.4224 0C75.2902 0 86.2644 1.00516 94.3448 3.01547C102.48 5.02578 109.168 8.14991 114.409 12.3879C124.565 20.6464 129.642 34.2025 129.642 53.0559C129.642 61.5318 128.032 69.3014 124.81 76.3647C121.589 83.4279 117.194 89.486 111.625 94.539C106.056 99.5919 99.5316 103.531 92.0517 106.356C84.5718 109.182 76.5733 110.594 68.056 110.594L53.4785 110.268V133.822H0V3.99346ZM73.7888 33.8221C69.0934 33.8221 62.2141 37.0549 53.1509 43.5205V74.2457L62.7328 69.6002C69.0661 66.5033 73.4885 63.5421 76 60.7168C80.6954 55.4466 83.0431 50.2034 83.0431 44.9875C83.0431 39.7716 81.2687 36.3214 77.7198 34.6371C76.5733 34.0938 75.2629 33.8221 73.7888 33.8221Z" fill="url(#paint8_linear)"/>
<path d="M207.198 137C163.793 137 142.091 118.636 142.091 81.9066V3.66746H193.767V80.4396C193.767 88.1549 196.361 93.1806 201.547 95.517C203.349 96.3319 205.506 96.7394 208.017 96.7394C215.115 96.7394 219.592 93.3708 221.448 86.6336C221.994 84.6232 222.267 82.4499 222.267 80.1136V3.66746H267.556V81.9066C267.556 118.636 247.437 137 207.198 137Z" fill="url(#paint9_linear)"/>
<path d="M286.474 3.66746C319.615 1.22249 341.236 0 351.336 0C361.491 0 369.49 0.950823 375.332 2.85247C381.228 4.69978 386.497 7.28059 391.138 10.5949C400.147 16.9518 406.944 25.4006 411.53 35.9411C416.171 46.4817 418.491 57.158 418.491 67.9703C418.491 78.7825 416.717 88.2364 413.168 96.3319C409.674 104.373 404.815 111.165 398.591 116.707C385.869 128.171 369.408 133.876 349.207 133.822H286.474V3.66746ZM337.414 44.9875V94.6205C340.307 92.1755 343.447 89.7577 346.832 87.367C359.826 78.0761 366.323 68.3506 366.323 58.1904C366.323 53.2461 364.849 48.6821 361.901 44.4985C358.953 40.2606 355.103 38.1416 350.353 38.1416C345.658 38.1416 341.345 40.4236 337.414 44.9875Z" fill="url(#paint10_linear)"/>
<path d="M539.289 71.8822L551.819 71.8007C554.876 71.8007 556.651 71.7736 557.142 71.7192V132.192C537.978 135.397 522.691 137 511.28 137C499.869 137 489.168 135.397 479.177 132.192C469.185 128.932 460.532 124.313 453.216 118.337C445.899 112.36 440.167 105.134 436.017 96.6579C431.868 88.1277 429.793 78.5923 429.793 68.0518C429.793 47.351 438.065 30.8338 454.608 18.5003C471.205 6.16677 492.471 0 518.405 0C531.126 0 541.2 1.35832 548.625 4.07496C549.935 4.56395 550.645 4.80845 550.754 4.80845V44.1725C542.728 41.7275 535.358 40.5051 528.642 40.5051C516.412 40.5051 506.83 43.7379 499.897 50.2034C492.963 56.669 489.523 64.1126 489.578 72.5342C489.578 78.4021 491.188 83.2106 494.409 86.9595C497.685 90.7085 502.162 92.583 507.841 92.583C510.898 92.583 513.246 92.2027 514.884 91.442C514.993 89.4317 515.047 86.8509 515.047 83.6996V71.8822C523.128 71.8822 531.208 71.8822 539.289 71.8822Z" fill="url(#paint11_linear)"/>
<path d="M609.228 83.0476L569.345 3.66746H627.737L640.759 30.3177L654.19 3.66746H703L662.297 83.0476V133.822H609.228V83.0476Z" fill="url(#paint12_linear)"/>
<defs>
<linearGradient id="paint0_linear" x1="5.26011e-06" y1="221" x2="706" y2="221" gradientUnits="userSpaceOnUse">
<stop stop-color="#513BFF"/>
<stop offset="0.515625" stop-color="#24BFFD"/>
<stop offset="1" stop-color="#9FFCCF"/>
</linearGradient>
<linearGradient id="paint1_linear" x1="5.26011e-06" y1="221" x2="706" y2="221" gradientUnits="userSpaceOnUse">
<stop stop-color="#513BFF"/>
<stop offset="0.515625" stop-color="#24BFFD"/>
<stop offset="1" stop-color="#9FFCCF"/>
</linearGradient>
<linearGradient id="paint2_linear" x1="5.26011e-06" y1="221" x2="706" y2="221" gradientUnits="userSpaceOnUse">
<stop stop-color="#513BFF"/>
<stop offset="0.515625" stop-color="#24BFFD"/>
<stop offset="1" stop-color="#9FFCCF"/>
</linearGradient>
<linearGradient id="paint3_linear" x1="5.26011e-06" y1="221" x2="706" y2="221" gradientUnits="userSpaceOnUse">
<stop stop-color="#513BFF"/>
<stop offset="0.515625" stop-color="#24BFFD"/>
<stop offset="1" stop-color="#9FFCCF"/>
</linearGradient>
<linearGradient id="paint4_linear" x1="5.26011e-06" y1="221" x2="706" y2="221" gradientUnits="userSpaceOnUse">
<stop stop-color="#513BFF"/>
<stop offset="0.515625" stop-color="#24BFFD"/>
<stop offset="1" stop-color="#9FFCCF"/>
</linearGradient>
<linearGradient id="paint5_linear" x1="5.26011e-06" y1="221" x2="706" y2="221" gradientUnits="userSpaceOnUse">
<stop stop-color="#513BFF"/>
<stop offset="0.515625" stop-color="#24BFFD"/>
<stop offset="1" stop-color="#9FFCCF"/>
</linearGradient>
<linearGradient id="paint6_linear" x1="5.26011e-06" y1="221" x2="706" y2="221" gradientUnits="userSpaceOnUse">
<stop stop-color="#513BFF"/>
<stop offset="0.515625" stop-color="#24BFFD"/>
<stop offset="1" stop-color="#9FFCCF"/>
</linearGradient>
<linearGradient id="paint7_linear" x1="5.26011e-06" y1="221" x2="706" y2="221" gradientUnits="userSpaceOnUse">
<stop stop-color="#513BFF"/>
<stop offset="0.515625" stop-color="#24BFFD"/>
<stop offset="1" stop-color="#9FFCCF"/>
</linearGradient>
<linearGradient id="paint8_linear" x1="703" y1="68.5" x2="6.84797e-07" y2="68.5" gradientUnits="userSpaceOnUse">
<stop stop-color="#FA5C7E"/>
<stop offset="0.5" stop-color="#B070BE"/>
<stop offset="1" stop-color="#697FF4"/>
</linearGradient>
<linearGradient id="paint9_linear" x1="703" y1="68.5" x2="6.84797e-07" y2="68.5" gradientUnits="userSpaceOnUse">
<stop stop-color="#FA5C7E"/>
<stop offset="0.5" stop-color="#B070BE"/>
<stop offset="1" stop-color="#697FF4"/>
</linearGradient>
<linearGradient id="paint10_linear" x1="703" y1="68.5" x2="6.84797e-07" y2="68.5" gradientUnits="userSpaceOnUse">
<stop stop-color="#FA5C7E"/>
<stop offset="0.5" stop-color="#B070BE"/>
<stop offset="1" stop-color="#697FF4"/>
</linearGradient>
<linearGradient id="paint11_linear" x1="703" y1="68.5" x2="6.84797e-07" y2="68.5" gradientUnits="userSpaceOnUse">
<stop stop-color="#FA5C7E"/>
<stop offset="0.5" stop-color="#B070BE"/>
<stop offset="1" stop-color="#697FF4"/>
</linearGradient>
<linearGradient id="paint12_linear" x1="703" y1="68.5" x2="6.84797e-07" y2="68.5" gradientUnits="userSpaceOnUse">
<stop stop-color="#FA5C7E"/>
<stop offset="0.5" stop-color="#B070BE"/>
<stop offset="1" stop-color="#697FF4"/>
</linearGradient>
</defs>
</svg>
