<svg width="15" height="14" viewBox="0 0 15 14" fill="none" xmlns="http://www.w3.org/2000/svg">
<path d="M15 2.22172C14.5683 2.91197 14.0288 3.48717 13.4892 3.94733C13.4892 4.06237 13.4892 4.17741 13.4892 4.40749C13.4892 5.32782 13.3813 6.24814 13.1655 7.05342C12.9496 7.97375 12.518 8.77903 12.0863 9.58432C11.5468 10.3896 11.0072 11.0798 10.3597 11.7701C9.60431 12.4603 8.74101 12.9205 7.8777 13.2656C6.90647 13.6107 5.82734 13.8408 4.7482 13.8408C3.02158 13.8408 1.40288 13.2656 0 12.3453C0.215827 12.3453 0.431655 12.3453 0.755396 12.3453C2.15827 12.3453 3.56115 11.8851 4.64029 10.9648C3.9928 10.9648 3.34532 10.7347 2.80575 10.2746C2.26619 9.8144 1.94244 9.35424 1.72662 8.66399C1.94244 8.66399 2.15827 8.66399 2.26619 8.66399C2.58993 8.66399 2.80576 8.66399 3.1295 8.54895C2.48202 8.43391 1.83453 7.97375 1.40288 7.39855C0.755395 6.82334 0.539568 6.1331 0.539568 5.32782C0.971223 5.5579 1.51079 5.67294 1.94245 5.78798C1.51079 5.44286 1.18705 5.09774 0.863308 4.63757C0.647481 4.17741 0.431654 3.60221 0.431654 3.027C0.431654 2.4518 0.539567 1.8766 0.863308 1.41644C1.6187 2.4518 2.58993 3.25709 3.66907 3.83229C4.7482 4.40749 5.93525 4.75261 7.23022 4.86765C7.23022 4.63757 7.1223 4.40749 7.1223 4.06237C7.1223 3.37213 7.33813 2.79692 7.66187 2.22172C7.98561 1.64652 8.52518 1.3014 9.06475 0.956275C9.60432 0.726194 10.2518 0.611153 10.8993 0.841234C11.5468 0.956275 12.0863 1.3014 12.518 1.76156C13.1655 1.64652 13.9209 1.41644 14.4604 0.956275C14.2446 1.76156 13.705 2.33676 13.0576 2.79692C13.8129 2.68188 14.4604 2.56684 15 2.22172Z" fill="#07081D"/>
</svg>
