<svg width="19" height="15" viewBox="0 0 19 15" fill="none" xmlns="http://www.w3.org/2000/svg">
<path d="M15.7911 1.468C14.6179 0.927736 13.3635 0.535096 12.052 0.311523C11.891 0.598135 11.7028 0.983635 11.5731 1.2903C10.1789 1.08394 8.79762 1.08394 7.42912 1.2903C7.29941 0.983635 7.10697 0.598135 6.94447 0.311523C5.63158 0.535096 4.3757 0.929178 3.20251 1.47086C0.836177 4.99038 0.194702 8.42248 0.51544 11.8059C2.08492 12.9594 3.60593 13.6602 5.10128 14.1188C5.47049 13.6186 5.79977 13.087 6.08344 12.5267C5.54318 12.3246 5.02573 12.0753 4.53679 11.7858C4.6665 11.6912 4.79338 11.5923 4.91596 11.4906C7.89811 12.8634 11.1383 12.8634 14.0848 11.4906C14.2088 11.5923 14.3357 11.6912 14.464 11.7858C13.9736 12.0767 13.4547 12.326 12.9145 12.5281C13.1981 13.087 13.526 13.6201 13.8966 14.1202C15.3934 13.6616 16.9158 12.9609 18.4853 11.8059C18.8617 7.88366 17.8424 4.48308 15.7911 1.468ZM6.48972 9.72511C5.59451 9.72511 4.86036 8.90254 4.86036 7.90085C4.86036 6.89917 5.57883 6.07518 6.48972 6.07518C7.40063 6.07518 8.13475 6.89773 8.11907 7.90085C8.12049 8.90254 7.40063 9.72511 6.48972 9.72511ZM12.511 9.72511C11.6158 9.72511 10.8817 8.90254 10.8817 7.90085C10.8817 6.89917 11.6001 6.07518 12.511 6.07518C13.4219 6.07518 14.1561 6.89773 14.1404 7.90085C14.1404 8.90254 13.4219 9.72511 12.511 9.72511Z" fill="#07081D"/>
</svg>
