<svg width="1070" height="1010" viewBox="0 0 1070 1010" fill="none" xmlns="http://www.w3.org/2000/svg">
<path d="M716 27L921 10L1070 63V957L743 1010L479 952L313 806V796L478 666L305 565L258 505L135 506L123 488V478L168 399L144 378V368L577 253L558 236V226L630 185L577 152L558 123V113L577 75L716 27Z" fill="#4FC3EB"/>
<path d="M520 181L561 210L605 183V173L520 171V181Z" fill="#4FC3EB"/>
<path d="M540 209V219L481 220L480 206V196L540 209Z" fill="#4FC3EB"/>
<path d="M463 265L459 241V231L528 242V252L463 265Z" fill="#4FC3EB"/>
<path d="M108 464L118 423V413L58 406V416L108 464Z" fill="#4FC3EB"/>
<path d="M108 499V489L0 456V466C8.01501 476.417 24 500 24 500L108 499Z" fill="#4FC3EB"/>
<path d="M190 536V526L284 572V582L219 572L190 536Z" fill="#4FC3EB"/>
<path d="M392 673V683L260 693V683L392 673Z" fill="#4FC3EB"/>
<path d="M207 692L204 618V608L257 617V627L207 692Z" fill="#4FC3EB"/>
<path d="M82 666V656L195 603V613L178 688L115 695L82 666Z" fill="#4FC3EB"/>
<path d="M93.7753 632.596L134.652 598.942V589H40.8765V598.942L93.7753 632.596Z" fill="#4FC3EB"/>
<path d="M101 692V702L74 721L46 700V690L101 692Z" fill="#4FC3EB"/>
<path d="M78 738V728L144 703V713L139 752L78 738Z" fill="#4FC3EB"/>
<path d="M305 899L396 947V957L305 909V899Z" fill="#4FC3EB"/>
<path d="M716 17L921 0L1070 53V947L743 1000L479 942L313 796L317 772L478 656L305 555L258 495L135 496L123 478L135 425L168 389L144 368L159 341L577 243L558 226L630 175L577 142L558 113L577 65L716 17Z" fill="#BEEDFD"/>
<path d="M520 171L561 200L605 173L520 171Z" fill="#BEEDFD"/>
<path d="M502 182L540 209L481 210L480 196L502 182Z" fill="#BEEDFD"/>
<path d="M459 231L514 226L528 242L463 255L459 231Z" fill="#BEEDFD"/>
<path d="M108 454L118 413L58 406L108 454Z" fill="#BEEDFD"/>
<path d="M108 489L58 435L0 456C8.01501 466.417 24 490 24 490L108 489Z" fill="#BEEDFD"/>
<path d="M190 526L243 512L284 572L219 562L190 526Z" fill="#BEEDFD"/>
<path d="M349 625L392 673L260 683L264.494 649.039L349 625Z" fill="#BEEDFD"/>
<path d="M207 682L204 608L257 617L207 682Z" fill="#BEEDFD"/>
<path d="M161 596L195 603L178 678L115 685L82 656L161 596Z" fill="#BEEDFD"/>
<path d="M93.7753 622.596L134.652 588.942H40.8765L93.7753 622.596Z" fill="#BEEDFD"/>
<path d="M72 666L101 692L74 711L46 690L72 666Z" fill="#BEEDFD"/>
<path d="M106 702L144 703L139 742L78 728L106 702Z" fill="#BEEDFD"/>
<path d="M313 832L368 877L396 947L305 899L313 832Z" fill="#BEEDFD"/>
</svg>
