<svg width="1070" height="650" viewBox="0 0 1070 650" fill="none" xmlns="http://www.w3.org/2000/svg">
<g clip-path="url(#clip0)">
<path d="M354 27L149 10L0 63V957L327 1010L591 952L757 806V796L592 666L765 565L812 505L935 506L947 488V478L902 399L926 378V368L493 253L512 236V226L440 185L493 152L512 123V113L493 75L354 27Z" fill="#4FC3EB"/>
<path d="M550 181L509 210L465 183V173L550 171V181Z" fill="#4FC3EB"/>
<path d="M530 209V219L589 220L590 206V196L530 209Z" fill="#4FC3EB"/>
<path d="M607 265L611 241V231L542 242V252L607 265Z" fill="#4FC3EB"/>
<path d="M962 464L952 423V413L1012 406V416L962 464Z" fill="#4FC3EB"/>
<path d="M962 499V489L1070 456V466C1061.98 476.417 1046 500 1046 500L962 499Z" fill="#4FC3EB"/>
<path d="M880 536V526L786 572V582L851 572L880 536Z" fill="#4FC3EB"/>
<path d="M678 673V683L810 693V683L678 673Z" fill="#4FC3EB"/>
<path d="M863 692L866 618V608L813 617V627L863 692Z" fill="#4FC3EB"/>
<path d="M988 666V656L875 603V613L892 688L955 695L988 666Z" fill="#4FC3EB"/>
<path d="M976.225 632.596L935.348 598.942V589H1029.12V598.942L976.225 632.596Z" fill="#4FC3EB"/>
<path d="M969 692V702L996 721L1024 700V690L969 692Z" fill="#4FC3EB"/>
<path d="M992 738V728L926 703V713L931 752L992 738Z" fill="#4FC3EB"/>
<path d="M765 899L674 947V957L765 909V899Z" fill="#4FC3EB"/>
<path d="M354 17L149 0L0 53V947L327 1000L591 942L757 796L753 772L592 656L765 555L812 495L935 496L947 478L935 425L902 389L926 368L911 341L493 243L512 226L440 175L493 142L512 113L493 65L354 17Z" fill="#BEEDFD"/>
<path d="M550 171L509 200L465 173L550 171Z" fill="#BEEDFD"/>
<path d="M568 182L530 209L589 210L590 196L568 182Z" fill="#BEEDFD"/>
<path d="M611 231L556 226L542 242L607 255L611 231Z" fill="#BEEDFD"/>
<path d="M962 454L952 413L1012 406L962 454Z" fill="#BEEDFD"/>
<path d="M962 489L1012 435L1070 456C1061.98 466.417 1046 490 1046 490L962 489Z" fill="#BEEDFD"/>
<path d="M880 526L827 512L786 572L851 562L880 526Z" fill="#BEEDFD"/>
<path d="M721 625L678 673L810 683L805.506 649.039L721 625Z" fill="#BEEDFD"/>
<path d="M863 682L866 608L813 617L863 682Z" fill="#BEEDFD"/>
<path d="M909 596L875 603L892 678L955 685L988 656L909 596Z" fill="#BEEDFD"/>
<path d="M976.225 622.596L935.348 588.942H1029.12L976.225 622.596Z" fill="#BEEDFD"/>
<path d="M998 666L969 692L996 711L1024 690L998 666Z" fill="#BEEDFD"/>
<path d="M964 702L926 703L931 742L992 728L964 702Z" fill="#BEEDFD"/>
<path d="M757 832L702 877L674 947L765 899L757 832Z" fill="#BEEDFD"/>
</g>
<defs>
<clipPath id="clip0">
<rect width="1070" height="650" fill="white"/>
</clipPath>
</defs>
</svg>
