<svg width="397" height="168" viewBox="0 0 397 168" fill="none" xmlns="http://www.w3.org/2000/svg">
<path d="M392.5 30.5L368.594 11.6835C359.885 4.82882 347.615 4.82884 338.906 11.6835L329.844 18.8165C321.135 25.6712 308.865 25.6712 300.156 18.8165L291.094 11.6835C282.385 4.82884 270.115 4.82882 261.406 11.6835L252.344 18.8165C243.635 25.6712 231.365 25.6712 222.656 18.8165L213.594 11.6835C204.885 4.82882 192.615 4.82884 183.906 11.6835L174.844 18.8165C166.135 25.6712 153.865 25.6712 145.156 18.8165L136.094 11.6835C127.385 4.82882 115.115 4.82884 106.406 11.6835L97.3438 18.8165C88.635 25.6712 76.365 25.6712 67.6562 18.8165L58.5938 11.6835C49.885 4.82884 37.615 4.82882 28.9062 11.6835L5 30.5" stroke="url(#paint0_linear)" stroke-width="9" stroke-linecap="round"/>
<path d="M392.5 75L368.594 56.1835C359.885 49.3288 347.615 49.3288 338.906 56.1835L329.844 63.3165C321.135 70.1712 308.865 70.1712 300.156 63.3165L291.094 56.1835C282.385 49.3288 270.115 49.3288 261.406 56.1835L252.344 63.3165C243.635 70.1712 231.365 70.1712 222.656 63.3165L213.594 56.1835C204.885 49.3288 192.615 49.3288 183.906 56.1835L174.844 63.3165C166.135 70.1712 153.865 70.1712 145.156 63.3165L136.094 56.1835C127.385 49.3288 115.115 49.3288 106.406 56.1835L97.3438 63.3165C88.635 70.1712 76.365 70.1712 67.6562 63.3165L58.5938 56.1835C49.885 49.3288 37.615 49.3288 28.9062 56.1835L5 75" stroke="url(#paint1_linear)" stroke-width="9" stroke-linecap="round"/>
<path d="M392.5 119L368.594 100.184C359.885 93.3288 347.615 93.3288 338.906 100.184L329.844 107.316C321.135 114.171 308.865 114.171 300.156 107.316L291.094 100.184C282.385 93.3288 270.115 93.3288 261.406 100.184L252.344 107.316C243.635 114.171 231.365 114.171 222.656 107.316L213.594 100.184C204.885 93.3288 192.615 93.3288 183.906 100.184L174.844 107.316C166.135 114.171 153.865 114.171 145.156 107.316L136.094 100.184C127.385 93.3288 115.115 93.3288 106.406 100.184L97.3438 107.316C88.635 114.171 76.365 114.171 67.6562 107.316L58.5938 100.184C49.885 93.3288 37.615 93.3288 28.9062 100.184L5 119" stroke="url(#paint2_linear)" stroke-width="9" stroke-linecap="round"/>
<path d="M392.5 163L368.594 144.184C359.885 137.329 347.615 137.329 338.906 144.184L329.844 151.316C321.135 158.171 308.865 158.171 300.156 151.316L291.094 144.184C282.385 137.329 270.115 137.329 261.406 144.184L252.344 151.316C243.635 158.171 231.365 158.171 222.656 151.316L213.594 144.184C204.885 137.329 192.615 137.329 183.906 144.184L174.844 151.316C166.135 158.171 153.865 158.171 145.156 151.316L136.094 144.184C127.385 137.329 115.115 137.329 106.406 144.184L97.3438 151.316C88.635 158.171 76.365 158.171 67.6562 151.316L58.5938 144.184C49.885 137.329 37.615 137.329 28.9062 144.184L5 163" stroke="url(#paint3_linear)" stroke-width="9" stroke-linecap="round"/>
<defs>
<linearGradient id="paint0_linear" x1="5" y1="15.25" x2="392.5" y2="15.25" gradientUnits="userSpaceOnUse">
<stop stop-color="#513BFF"/>
<stop offset="0.515625" stop-color="#24BFFD"/>
<stop offset="1" stop-color="#9FFCCF"/>
</linearGradient>
<linearGradient id="paint1_linear" x1="5" y1="59.75" x2="392.5" y2="59.75" gradientUnits="userSpaceOnUse">
<stop stop-color="#513BFF"/>
<stop offset="0.515625" stop-color="#24BFFD"/>
<stop offset="1" stop-color="#9FFCCF"/>
</linearGradient>
<linearGradient id="paint2_linear" x1="5" y1="103.75" x2="392.5" y2="103.75" gradientUnits="userSpaceOnUse">
<stop stop-color="#513BFF"/>
<stop offset="0.515625" stop-color="#24BFFD"/>
<stop offset="1" stop-color="#9FFCCF"/>
</linearGradient>
<linearGradient id="paint3_linear" x1="5" y1="147.75" x2="392.5" y2="147.75" gradientUnits="userSpaceOnUse">
<stop stop-color="#513BFF"/>
<stop offset="0.515625" stop-color="#24BFFD"/>
<stop offset="1" stop-color="#9FFCCF"/>
</linearGradient>
</defs>
</svg>
